<?xml version="1.0" standalone="no"?>
<!DOCTYPE svg PUBLIC "-//W3C//DTD SVG 20010904//EN"
 "http://www.w3.org/TR/2001/REC-SVG-20010904/DTD/svg10.dtd">
<svg version="1.0" xmlns="http://www.w3.org/2000/svg"
 width="400.000000pt" height="400.000000pt" viewBox="0 0 400.000000 400.000000"
 preserveAspectRatio="xMidYMid meet">
<metadata>
Created by potrace 1.14, written by Peter Selinger 2001-2017
</metadata>
<g transform="translate(0.000000,400.000000) scale(0.100000,-0.100000)"
fill="#000000" stroke="none">
<path d="M1775 3935 c-60 -8 -139 -19 -175 -26 -86 -15 -301 -85 -370 -119
-30 -15 -65 -30 -76 -34 -55 -17 -289 -165 -379 -240 -67 -56 -164 -146 -189
-176 -12 -13 -32 -36 -46 -50 -120 -122 -301 -422 -369 -612 -88 -248 -116
-422 -115 -693 2 -168 7 -225 45 -444 10 -57 9 -69 -9 -110 -40 -92 -44 -107
-49 -176 -9 -119 33 -250 105 -329 56 -61 218 -146 280 -146 32 0 61 -17 102
-60 78 -83 149 -156 162 -165 7 -5 42 -35 78 -66 36 -31 101 -80 145 -109 89
-60 343 -189 420 -213 231 -74 264 -81 435 -102 158 -19 290 -19 455 0 155 18
215 30 315 62 41 13 98 31 125 40 28 8 59 21 70 27 11 7 47 23 79 36 134 54
320 174 457 295 25 22 56 50 70 61 13 12 57 55 96 96 69 71 76 76 135 87 189
37 327 150 372 305 32 109 12 274 -44 369 -15 26 -18 40 -11 67 41 158 56 293
55 500 0 226 -17 351 -71 530 -92 306 -223 539 -436 774 -74 82 -94 102 -150
148 -17 15 -48 41 -67 58 -109 95 -391 256 -542 308 -193 67 -276 87 -458 107
-161 18 -296 18 -445 0z m145 -107 c0 -10 29 -13 113 -12 61 0 121 4 132 8 15
6 17 6 5 -3 -24 -17 -6 -23 92 -31 51 -4 106 -12 121 -19 16 -6 47 -11 69 -11
24 0 49 -7 59 -16 10 -9 37 -17 61 -18 80 -4 87 -6 93 -25 3 -12 19 -21 40
-25 19 -4 34 -12 32 -18 -1 -7 12 -17 29 -23 17 -5 38 -16 46 -23 9 -7 20 -12
24 -11 30 5 53 -4 59 -21 5 -15 12 -19 26 -15 12 4 21 1 25 -9 3 -9 10 -13 16
-10 5 3 12 -4 15 -15 5 -18 8 -19 21 -9 12 11 16 11 20 0 2 -7 20 -19 39 -27
28 -12 34 -19 30 -35 -4 -15 0 -20 14 -20 10 0 19 -7 19 -15 0 -8 3 -14 8 -13
15 5 59 -27 109 -79 29 -29 56 -53 59 -53 11 0 59 -55 74 -84 8 -16 23 -31 32
-34 10 -2 20 -13 23 -23 4 -10 10 -19 15 -19 5 0 13 -15 18 -32 4 -18 12 -33
18 -33 18 0 34 -17 34 -36 0 -10 4 -19 9 -19 5 0 15 -16 21 -34 7 -23 16 -33
25 -30 7 3 16 -3 20 -15 3 -12 11 -19 16 -16 5 4 9 -1 9 -9 0 -9 -4 -16 -10
-16 -5 0 -10 -7 -10 -15 0 -8 4 -15 10 -15 5 0 12 -11 16 -24 3 -14 12 -27 20
-30 8 -3 14 -12 14 -19 0 -8 7 -20 15 -27 9 -8 13 -21 9 -35 -4 -16 1 -30 14
-43 11 -11 18 -23 14 -26 -3 -3 0 -6 5 -6 6 0 14 -18 18 -40 4 -22 10 -40 15
-40 16 0 27 -56 22 -108 -3 -35 -1 -52 7 -52 6 0 11 -17 11 -40 0 -22 5 -40
10 -40 6 0 10 -37 10 -90 0 -62 5 -100 15 -120 10 -18 11 -30 5 -30 -7 0 -7
-7 1 -22 18 -33 19 -166 2 -184 -10 -9 -14 -35 -13 -76 1 -99 -11 -153 -35
-153 -13 0 -20 6 -19 17 1 10 -4 14 -13 11 -8 -3 -12 -12 -8 -21 4 -12 3 -13
-10 -2 -8 7 -12 17 -8 23 3 6 1 7 -5 3 -10 -6 -96 52 -172 116 -13 11 -36 28
-50 37 -14 9 -36 26 -50 38 -32 30 -42 29 -78 -5 -16 -15 -48 -36 -71 -47 -36
-16 -57 -45 -33 -45 5 0 52 -28 104 -62 53 -35 113 -73 134 -86 53 -32 99 -95
119 -165 17 -59 14 -127 -5 -127 -6 0 -10 -9 -10 -19 0 -11 -20 -36 -47 -58
-27 -21 -51 -42 -55 -48 -4 -5 -42 -11 -86 -13 -127 -6 -185 33 -245 163 -12
26 -20 71 -22 130 -2 49 -7 131 -11 181 l-6 91 -92 6 c-50 3 -93 3 -95 1 -2
-1 -3 -21 -3 -44 0 -22 -2 -40 -6 -40 -4 0 -59 -9 -122 -21 -265 -47 -400 -59
-705 -66 -346 -7 -574 6 -787 42 -79 14 -163 28 -186 32 l-44 6 7 36 c3 20 9
44 12 55 4 16 1 18 -23 13 -16 -3 -60 -11 -99 -17 -38 -7 -75 -14 -81 -15 -11
-3 -16 -36 -42 -285 -11 -99 -44 -164 -114 -221 -43 -34 -44 -34 -147 -35 -93
-1 -104 1 -108 17 -3 11 -11 19 -18 19 -18 0 -62 54 -80 97 -46 110 30 251
171 322 38 19 71 37 74 40 8 9 42 30 67 40 34 15 36 30 6 42 -43 16 -115 60
-109 66 3 3 13 0 21 -7 31 -26 130 -60 201 -71 228 -32 457 111 529 330 21 64
23 184 5 262 -13 55 -59 149 -72 149 -5 0 -8 5 -8 12 0 24 -101 108 -172 142
-197 96 -425 57 -573 -98 -138 -145 -173 -385 -78 -538 13 -21 23 -42 23 -48
0 -5 19 -29 43 -53 23 -23 48 -50 55 -59 11 -14 11 -16 -7 -11 -12 3 -21 1
-21 -4 0 -5 -12 -15 -27 -22 -16 -7 -35 -19 -43 -27 -15 -14 -139 -102 -194
-138 -23 -15 -30 -16 -38 -5 -7 10 -8 8 -5 -9 3 -12 1 -22 -3 -22 -5 0 -17 -3
-27 -6 -17 -5 -17 -5 0 6 9 6 17 20 17 30 0 24 -15 26 -24 4 -4 -9 -9 -14 -13
-11 -3 4 0 13 6 21 9 10 9 20 2 34 -7 13 -7 23 2 32 9 10 9 14 0 17 -15 5 -18
83 -4 83 5 0 3 21 -5 47 -16 52 -19 113 -5 113 13 0 25 151 13 159 -6 3 -11
24 -12 46 -3 55 -1 62 9 46 7 -11 12 -4 20 25 5 21 10 50 10 64 0 70 15 159
31 190 24 46 41 100 34 111 -3 5 2 6 10 3 12 -5 16 0 16 18 0 13 9 41 20 63
11 22 20 43 20 47 0 5 11 25 25 46 13 20 28 52 31 70 4 18 15 37 24 42 10 5
20 20 24 33 3 13 17 29 31 37 14 7 25 17 25 22 0 5 -4 6 -10 3 -5 -3 -10 -1
-10 4 0 6 6 11 13 11 7 0 20 16 27 36 8 20 16 31 18 24 2 -6 13 6 24 27 12 21
28 53 38 70 9 18 20 30 24 26 3 -4 38 26 76 65 38 40 75 72 82 72 7 0 26 16
41 35 15 19 36 35 45 35 9 0 39 21 67 46 34 31 56 44 70 42 16 -4 21 0 21 15
-1 15 8 23 34 30 19 5 39 15 43 23 4 8 16 14 26 14 10 0 29 10 42 23 13 13 45
29 71 36 25 7 56 24 68 38 16 19 24 22 30 13 4 -7 12 -10 18 -6 5 3 26 8 47
12 20 3 57 14 82 25 24 10 52 19 61 19 8 0 29 4 46 9 49 15 179 41 203 41 12
0 23 -6 26 -12 6 -20 62 4 61 25 -1 9 2 17 7 17 5 0 9 -6 9 -12z m-856 -1216
c80 -34 173 -117 208 -183 12 -24 25 -46 28 -49 33 -25 29 -267 -4 -310 -7 -8
-18 -28 -26 -45 -25 -48 -123 -140 -183 -169 -140 -69 -328 -55 -447 34 -157
118 -224 299 -166 455 46 124 111 200 219 254 85 43 122 51 222 46 61 -2 96
-10 149 -33z m191 -1123 c208 -29 286 -36 550 -50 400 -20 782 2 1078 61 65
13 84 13 70 -1 -7 -7 -8 -21 -3 -40 5 -15 10 -48 11 -71 1 -24 6 -48 11 -54
18 -24 -60 -66 -222 -118 -120 -38 -341 -66 -615 -76 -295 -12 -473 -3 -699
35 -184 31 -392 94 -412 126 -5 8 -3 9 6 4 9 -6 12 -4 8 7 -4 8 0 48 7 89 7
41 11 77 8 81 -8 15 22 38 42 32 11 -3 83 -14 160 -25z m1825 -444 c0 6 9 -9
20 -32 10 -24 23 -43 29 -43 5 0 13 -10 17 -22 4 -13 47 -62 95 -110 49 -48
89 -92 89 -98 0 -5 -9 -10 -21 -10 -11 0 -18 -4 -15 -8 3 -5 -10 -23 -29 -40
-19 -16 -35 -36 -35 -44 0 -7 -15 -19 -32 -27 -18 -8 -45 -22 -60 -33 -14 -10
-33 -18 -40 -18 -8 0 -14 -9 -14 -21 1 -15 -8 -24 -34 -33 -25 -8 -36 -18 -38
-34 -3 -23 -4 -23 -19 -5 -8 10 -12 13 -9 8 8 -17 -10 -38 -36 -42 -13 -2 -28
-10 -34 -18 -6 -8 -20 -16 -30 -18 -10 -2 -32 -9 -47 -15 -16 -7 -34 -12 -42
-12 -8 0 -26 -5 -40 -10 -23 -9 -25 -13 -15 -25 11 -13 7 -15 -21 -16 -19 -1
-38 -1 -42 0 -5 1 -6 -3 -3 -8 9 -15 -16 -28 -66 -35 -27 -4 -48 -11 -48 -15
0 -5 -20 -12 -45 -15 -25 -4 -57 -14 -73 -22 -24 -12 -28 -12 -39 2 -11 15
-15 15 -50 -1 -21 -9 -53 -24 -72 -33 -26 -12 -36 -13 -39 -4 -2 7 -21 12 -43
12 -32 0 -39 -3 -39 -20 0 -20 -5 -20 -170 -18 -130 2 -173 6 -179 16 -5 9
-34 15 -81 17 -45 3 -81 10 -97 20 -20 13 -27 14 -33 5 -5 -7 -15 -10 -25 -7
-9 4 -13 11 -10 17 4 6 -11 10 -37 10 -24 0 -52 7 -62 15 -11 8 -26 15 -33 15
-7 0 -36 11 -65 25 -28 14 -58 25 -66 25 -8 0 -26 9 -41 19 -15 11 -40 23 -57
27 -16 4 -37 13 -46 22 -10 8 -24 12 -32 9 -10 -4 -20 1 -26 13 -5 10 -22 21
-38 25 -15 3 -46 22 -69 43 -22 20 -58 46 -79 57 -44 23 -114 84 -114 100 0 5
-19 21 -41 33 -29 17 -38 27 -30 35 7 7 3 17 -16 33 -27 23 -27 23 -7 45 10
11 17 22 14 24 -5 3 24 36 81 90 48 46 109 125 109 141 0 8 5 14 10 14 6 0 10
-4 10 -9 0 -19 231 -238 306 -289 279 -189 604 -279 876 -243 131 18 281 58
375 102 46 21 87 39 90 39 4 0 29 15 57 33 27 17 58 37 67 42 62 37 170 118
213 160 52 50 67 68 120 138 21 28 31 35 37 25 5 -7 9 -8 9 -3z"/>
<path d="M1083 2858 c-25 -7 -33 -14 -33 -32 0 -26 42 -84 83 -113 61 -44 184
-172 248 -258 52 -71 49 -67 99 -131 22 -29 40 -55 40 -59 0 -5 11 -23 25 -41
14 -19 39 -66 55 -105 16 -39 36 -79 46 -90 21 -23 57 -25 74 -4 25 30 5 233
-35 345 -61 173 -230 348 -424 438 -112 52 -142 60 -178 50z"/>
<path d="M2770 2846 c-205 -78 -371 -213 -464 -378 -71 -125 -93 -234 -87
-425 1 -29 4 -33 29 -33 41 0 66 31 106 132 16 41 136 227 164 256 10 9 31 35
47 57 16 22 34 45 40 51 5 6 35 39 65 74 30 35 82 86 115 113 79 66 109 108
101 141 -5 22 -12 26 -44 26 -20 -1 -53 -7 -72 -14z"/>
<path d="M2925 2711 c-126 -34 -239 -126 -299 -244 -71 -139 -74 -275 -7 -412
60 -125 144 -201 276 -250 57 -22 86 -26 160 -26 87 1 112 5 185 33 49 19 117
56 122 65 1 5 16 18 32 31 36 27 112 142 127 191 17 57 23 201 9 264 -23 113
-105 229 -200 285 -25 14 -47 29 -50 32 -14 18 -115 41 -195 45 -69 4 -106 1
-160 -14z m285 -76 c30 -10 63 -26 72 -36 10 -10 32 -25 50 -34 41 -19 111
-112 140 -185 16 -41 22 -77 22 -140 1 -79 -2 -90 -36 -160 -40 -80 -118 -173
-155 -184 -13 -4 -23 -11 -23 -16 0 -12 -117 -49 -177 -57 -86 -10 -229 24
-271 65 -7 6 -16 12 -20 12 -12 0 -66 53 -103 100 -78 98 -103 210 -74 328 38
154 154 274 307 317 67 19 193 14 268 -10z"/>
<path d="M3035 2403 c-47 -10 -76 -27 -102 -62 -23 -30 -28 -46 -28 -95 1 -56
2 -60 47 -102 44 -42 50 -44 105 -44 125 0 194 102 148 217 -24 59 -105 100
-170 86z"/>
<path d="M790 2354 c-92 -83 -68 -210 49 -261 96 -42 211 38 211 147 0 50 -19
89 -60 124 -27 22 -41 26 -96 26 -59 0 -67 -3 -104 -36z"/>
</g>
</svg>
